<svg version="1.2" xmlns="http://www.w3.org/2000/svg" viewBox="0 0 1280 720" width="1280" height="720">
	<title>aerostrike</title>
	<style>
		.s0 { fill: #ffffff } 
	</style>
	<path id="AERO Strike" class="s0" aria-label="AERO Strike"  d="m28.6 455.6l34.8-192.3q0.2-1.1 1.3-1.1h40.6q1.1 0 1.4 1.1l33.4 192.3q0.1 1.4-1.1 1.4h-31.1q-1.3 0-1.5-1.4l-3-20.5h-38.1l-3 20.5q-0.2 1.4-1.4 1.4h-31.2q-1.1 0-1.1-1.4zm69.2-50.4l-11.5-78.6-1.6-10.4-1.2 10.4-12.6 78.6zm151.3 51.8h-90.5q-1.1 0-1.1-1.4l0.3-192.3q0-1.1 1.1-1.1h90q1.1 0 1.1 1.3v31.4q0 1-1.1 1h-57.5v43.8h57.5q1.1 0 1.1 1.1l0.2 31.7q0 1.1-1.1 1.1h-57.7v48.9h57.7q1.1 0 1.1 1.4v32q0 1.1-1.1 1.1zm58.8 0h-31.7q-1.1 0-1.1-1.4l0.6-192.3q0-1.1 1.1-1.1h56.6q15.1 0 27.8 7.4 12.8 7.3 20.3 19.8 7.6 12.4 7.6 28.1 0 10.3-3.1 18.6-3.2 8.4-7.4 14.1-4.1 5.8-7.5 8.5 15.2 16.8 15.2 39.5l0.2 57.4q0 1.4-1.3 1.4h-31.7q-1.1 0-1.1-0.8v-58q0-10.1-7.2-17.5-7.1-7.4-17.5-7.4h-18.4l-0.3 82.3q0 1.4-1.1 1.4zm25.5-161.3h-24.1v44h24.1q8.6 0 15.3-6.4 6.8-6.5 6.8-15.8 0-8.8-6.6-15.3-6.5-6.5-15.5-6.5zm122.9 164q-14.9 0-27.5-7.6-12.5-7.7-20.1-20.4-7.5-12.8-7.5-28.2l0.2-88.7q0-15.6 7.6-28 7.3-12.6 19.9-20.1 12.6-7.7 27.4-7.7 15.3 0 27.4 7.6 12.3 7.5 19.7 20.2 7.6 12.6 7.6 28l0.2 88.7q0 15.4-7.4 28.1-7.5 12.8-19.9 20.5-12.5 7.6-27.6 7.6zm0-33.7q8.4 0 14.7-6.9 6.3-6.9 6.3-15.6l-0.3-88.7q0-9.3-5.8-15.7-5.9-6.4-14.9-6.4-8.7 0-14.8 6.3-6.2 6.2-6.2 15.8v88.7q0 9.2 6.2 15.9 6.1 6.6 14.8 6.6zm196.3 33.7q-14.9 0-27.5-7.6-12.4-7.7-20-20.4-7.3-12.8-7.3-28.2v-12.8q0-1.5 1.3-1.5h31.5q1.1 0 1.1 1.5v12.8q0 9.2 6.1 15.9 6.2 6.6 14.8 6.6 8.7 0 14.9-6.7 6.1-6.9 6.1-15.8 0-10.2-13.4-17.9-2.1-1.3-5.7-3.2-3.4-2.1-8.2-4.7-4.8-2.6-9.3-5.1-4.5-2.6-8.7-4.9-15.4-9-22.9-22.5-7.4-13.7-7.4-30.7 0-15.5 7.7-28.1 7.7-12.5 20-19.7 12.4-7.4 26.9-7.4 14.9 0 27.3 7.4 12.5 7.5 19.9 19.9 7.5 12.5 7.5 27.9v23q0 1.1-1.1 1.1h-31.5q-1.1 0-1.1-1.1l-0.2-23q0-9.8-6.2-16-6.1-6.1-14.6-6.1-8.6 0-14.8 6.6-6.1 6.5-6.1 15.5 0 9.2 3.8 15.4 4 6.1 14.4 11.7 1.1 0.6 5 2.7 4 2.2 8.8 5 4.9 2.6 8.9 4.8 3.9 2 4.7 2.4 14 7.8 22 19.2 8.3 11.3 8.3 27.8 0 16-7.4 28.8-7.6 12.7-20 20.1-12.4 7.3-27.6 7.3zm134.1-2.7h-31.6q-1.2 0-1.2-1.4v-159.7h-36.4q-1.3 0-1.3-1.3l0.2-31.3q0-1.1 1.1-1.1h106.4q1.5 0 1.5 1.1v31.3q0 1.3-1.1 1.3h-36.8l0.3 159.7q0 1.4-1.1 1.4zm85.1 0h-31.8q-1.1 0-1.1-1.4l0.6-192.3q0-1.1 1.1-1.1h56.6q15.2 0 27.9 7.4 12.7 7.3 20.2 19.8 7.7 12.4 7.7 28.1 0 10.3-3.2 18.6-3.1 8.4-7.4 14.1-4.1 5.8-7.5 8.5 15.2 16.8 15.2 39.5l0.3 57.4q0 1.4-1.4 1.4h-31.7q-1.1 0-1.1-0.8v-58q0-10.1-7.1-17.5-7.1-7.4-17.5-7.4h-18.5l-0.3 82.3q0 1.4-1 1.4zm25.4-161.3h-24.1v44h24.1q8.6 0 15.3-6.4 6.8-6.5 6.8-15.8 0-8.8-6.5-15.3-6.6-6.5-15.6-6.5zm109.8 161.3h-31.8q-1.3 0-1.3-1.4l0.3-192.3q0-1.1 1-1.1h31.5q1.1 0 1.1 1.1l0.3 192.3q0 1.4-1.1 1.4zm58.5 0h-31.7q-1.1 0-1.1-1.4l0.5-192.1q0-1.3 1.1-1.3h31.5q1 0 1 1.3v66.4l43.9-66.6q1.1-1.1 2.1-1.1h32.1q1.2 0 0.6 1.1l-48.4 77.2 54.2 115.4q0.7 1.1-1.3 1.1h-34.2q-1.4 0-1.6-1.1l-37.9-82.3-9.7 15.3v66.7q0 1.4-1.1 1.4zm184.4 0h-90.5q-1.1 0-1.1-1.4l0.3-192.3q0-1.1 1.1-1.1h89.9q1.1 0 1.1 1.3v31.4q0 1-1.1 1h-57.4v43.8h57.4q1.1 0 1.1 1.1l0.3 31.7q0 1.1-1.1 1.1h-57.7v48.9h57.7q1.1 0 1.1 1.4v32q0 1.1-1.1 1.1z"/>
</svg>